<?xml version="1.0" standalone="no"?>
<!DOCTYPE svg PUBLIC "-//W3C//DTD SVG 20010904//EN"
 "http://www.w3.org/TR/2001/REC-SVG-20010904/DTD/svg10.dtd">
<svg version="1.0" xmlns="http://www.w3.org/2000/svg"
 width="200.000000pt" height="200.000000pt" viewBox="0 0 200.000000 200.000000"
 preserveAspectRatio="xMidYMid meet">
<metadata>
Created by potrace 1.16, written by Peter Selinger 2001-2019
</metadata>
<g transform="translate(0.000000,200.000000) scale(0.100000,-0.100000)"
fill="#000000" stroke="none">
<path d="M0 1000 l0 -1000 1000 0 1000 0 0 1000 0 1000 -1000 0 -1000 0 0
-1000z m1145 839 c77 -45 196 -114 265 -154 69 -39 160 -93 203 -118 43 -26
80 -47 83 -47 2 0 26 -14 54 -31 l51 -31 -98 -57 c-113 -66 -239 -139 -333
-192 -36 -20 -114 -65 -175 -99 -60 -35 -130 -74 -155 -88 l-45 -24 -109 63
c-60 34 -117 63 -125 64 -9 1 -36 12 -61 25 -100 54 -120 59 -121 33 0 -12 -5
-8 -14 12 l-14 30 -1 -38 c0 -28 3 -36 13 -31 9 5 9 4 1 -5 -9 -9 -22 -5 -60
17 -46 27 -49 31 -54 77 l-5 49 -110 67 c-60 38 -113 68 -117 69 -4 0 -9 -35
-11 -77 l-3 -78 -2 92 -2 92 58 32 c31 18 100 58 152 89 52 31 176 103 275
160 99 57 209 121 244 142 36 21 67 38 70 38 3 0 69 -37 146 -81z m361 -779
c3 0 14 5 25 10 16 9 19 7 19 -15 0 -28 3 -29 31 -15 16 9 19 7 19 -15 0 -28
3 -29 31 -15 18 10 19 7 19 -74 0 -80 -2 -87 -25 -102 -17 -11 -25 -25 -25
-45 0 -22 -7 -32 -25 -41 -18 -8 -25 -19 -25 -39 0 -19 -8 -34 -25 -45 -17
-11 -25 -25 -25 -45 0 -18 -7 -32 -19 -39 -22 -11 -36 2 -27 25 3 9 -15 3 -49
-16 l-55 -31 0 26 c0 29 -3 30 -31 16 -16 -9 -19 -7 -19 15 0 28 -3 29 -31 15
-18 -10 -19 -7 -19 45 0 56 -6 65 -28 43 -9 -9 -12 -5 -12 21 0 24 5 34 20 38
15 4 20 14 20 39 0 27 5 37 25 46 19 8 25 19 25 43 0 23 6 35 24 45 17 8 26
23 28 43 3 26 14 37 73 73 l70 43 3 -25 c2 -13 6 -24 8 -24z m-828 -52 c16 -8
22 -20 22 -43 0 -24 6 -35 25 -43 18 -9 25 -19 25 -41 0 -20 8 -34 25 -45 17
-12 25 -25 25 -46 0 -23 6 -33 25 -42 24 -11 25 -15 25 -100 0 -85 -1 -88 -19
-78 -27 14 -31 13 -31 -10 0 -23 -4 -24 -31 -10 -17 9 -19 7 -19 -16 0 -27 1
-27 -47 -7 -9 3 -13 -4 -13 -21 0 -24 -2 -25 -20 -16 -13 7 -20 21 -20 40 0
24 -8 33 -50 56 -44 24 -50 31 -50 59 0 24 -6 35 -25 43 -19 9 -25 19 -25 42
0 21 -8 34 -25 46 -22 14 -25 24 -25 74 0 51 -3 58 -25 68 -19 9 -25 19 -25
42 0 27 2 30 19 20 28 -14 31 -13 31 15 0 22 3 24 19 15 28 -14 31 -13 31 15
0 22 3 24 19 15 28 -14 31 -13 31 15 l0 25 53 -30 c28 -17 62 -36 75 -42z"/>
<path d="M1121 1706 l-24 -14 28 -14 28 -15 -49 -27 c-42 -23 -52 -25 -76 -15
-21 9 -35 9 -57 -1 -23 -9 -33 -9 -49 1 -16 10 -26 10 -45 2 -19 -9 -33 -9
-54 -1 -26 10 -37 7 -103 -32 l-73 -43 23 -17 23 -18 -21 -6 c-27 -9 -28 -23
-2 -31 26 -8 25 -22 -2 -31 l-21 -6 23 -18 23 -17 -23 -16 -22 -15 23 -12 23
-13 -22 -17 -22 -18 22 -14 c21 -14 21 -15 -16 -37 l-37 -23 103 -60 c57 -33
140 -82 186 -109 46 -27 88 -49 94 -49 6 0 43 20 82 44 39 24 130 77 201 118
310 179 465 271 465 277 0 12 -60 42 -70 36 -6 -4 -9 -1 -8 5 2 6 -34 31 -79
56 -46 25 -83 41 -83 35 0 -7 -8 -7 -25 1 -13 6 -22 15 -18 21 7 12 -16 27
-34 20 -11 -4 -10 -8 4 -18 17 -12 16 -14 -9 -20 -14 -4 -36 -2 -47 5 -32 17
-25 4 12 -19 17 -12 25 -21 17 -19 -8 1 -25 -1 -37 -6 -13 -4 -32 -2 -45 5
l-22 12 23 18 c26 22 21 25 -10 7 -17 -11 -27 -9 -70 15 -46 25 -51 26 -72 12
-21 -13 -26 -13 -43 0 -10 8 -14 15 -8 15 6 0 25 13 42 28 l32 29 -25 11 c-31
14 -24 14 -54 -2z m-241 -118 c15 -10 24 -9 44 2 22 11 30 11 50 0 20 -10 31
-10 54 -1 22 9 35 9 56 0 20 -10 29 -10 38 -1 18 18 30 15 107 -30 62 -35 70
-43 54 -51 -27 -15 -27 -15 -2 -35 l23 -19 -22 -7 c-28 -9 -28 -23 0 -32 l21
-6 -23 -18 -23 -17 22 -15 c21 -15 19 -16 -51 -57 -65 -38 -75 -41 -100 -30
-23 9 -34 9 -54 -1 -20 -11 -28 -11 -49 0 -21 11 -29 11 -50 0 -21 -11 -29
-11 -49 0 -20 10 -31 10 -54 1 -25 -11 -35 -8 -101 31 -66 38 -71 43 -52 52
27 12 27 22 -1 37 -20 11 -21 12 -2 22 29 15 29 16 8 32 -19 15 -19 15 0 30
21 16 21 17 -7 32 -16 8 -9 15 50 50 76 46 85 48 113 31z"/>
<path d="M425 1569 c-16 -11 -65 -38 -107 -61 -43 -23 -78 -44 -78 -47 0 -3
29 -21 64 -39 56 -29 68 -32 88 -21 17 9 19 13 8 16 -8 3 -21 7 -29 9 -8 3 2
16 29 35 41 30 44 31 70 16 24 -15 29 -14 73 12 53 31 53 30 -25 74 -54 31
-54 31 -93 6z"/>
</g>
</svg>
