<?xml version="1.0"?><svg version="1.2" baseProfile="tiny-ps" viewBox="0 0 300 300" xmlns="http://www.w3.org/2000/svg" xmlns:xlink="http://www.w3.org/1999/xlink"><title>logo</title><g><g fill="#6ec8e1" transform="matrix(.1 0 0 -.1 0 300)"><path d="M36 2048c-15-117-36-371-36-425v-62l32-46 32-45h196v29c0 16 3 36 6 45l6 16h83l24-45 24-45h78l-6-52c-4-29-8-58-10-64-2-7 5-45 15-85 10-41 32-136 50-212l32-138 66 3 67 3 3 35c1 19 5 50 8 68l5 32h97l7-57c4-31 9-62 12-70l5-13h1327l7 46c3 25 4 91 2 145l-5 100 9 5 10 6 8-8 9-9 12-142 12-143h135l22 98c12 53 27 120 34 147l12 50 36 3 36 3 16 57 15 57-19 137c-11 76-22 185-26 243l-7 105h41l7-147c3-82 8-160 11-174l5-26 61-7c33-3 120-6 192-6h131l39 56 39 56-16 167c-9 91-20 200-23 242-4 43-9 82-13 87l-6 10-1280 3-1280 3-3-42-3-42h-49v-34c0-19-4-37-8-40l-8-5-38 85-38 84H41l-5-42zm932-255 3-33H810v71l78-3 77-3 3-32zm1246 31 16-6v-68h-50v33c0 44 7 52 34 41z"/></g><g fill="#0eaaef" transform="matrix(.1 0 0 -.1 0 300)"><path d="M36 2048c-15-117-36-371-36-425v-62l32-46 32-45h196v29c0 16 3 36 6 45l6 16h83l24-45 24-45h78l-6-52c-4-29-8-58-10-64-2-7 5-45 15-85 10-41 32-136 50-212l32-138 66 3 67 3 3 35c1 19 5 50 8 68l5 32h97l7-57c4-31 9-62 12-70l5-13h1327l7 46c3 25 4 91 2 145l-5 100 9 5 10 6 8-8 9-9 12-142 12-143h135l22 98c12 53 27 120 34 147l12 50 36 3 36 3 16 57 15 57-19 137c-11 76-22 185-26 243l-7 105h41l7-147c3-82 8-160 11-174l5-26 61-7c33-3 120-6 192-6h131l39 56 39 56-16 167c-9 91-20 200-23 242-4 43-9 82-13 87l-6 10-1280 3-1280 3-3-42-3-42h-49v-34c0-19-4-37-8-40l-8-5-38 85-38 84H41l-5-42zm41-35-5-18v60l5-12c2-7 2-21 0-30zm130 0-5-18v60l5-12c2-7 2-21 0-30zm220 15-5-13-1 19c-1 11 2 17 5 13 3-3 4-12 1-19zm190-85-4-38v150l4-37c2-21 2-55 0-75zm333 62v-45H751l-4-57-3-58-2 68-2 67h200v35c0 19 2 35 5 35s5-20 5-45zm67-32-4-28v110l4-27c2-16 2-40 0-55zm720 45-5-13v50l5-12c2-7 2-19 0-25zm70-170-3-73v280l3-67c2-37 2-100 0-140zm-461 126-5-14h-190l-4-42-4-43-1 53-2 52h200l1 33 2 32 4-28c3-16 2-35-1-43zm86-367c12-4 41-3 65 0l43 6v137h70v-140l40-2c22-1 50-2 63-2l22-1 6 105 5 105 2-112 2-113h-150v140h-50v-140h-150l2 228 3 227 2-216 3-217 22-5zm695 411-5-13-1 19c-1 11 2 17 5 13 3-3 4-12 1-19zm403-17v-39l-55-4c-54-3-71 4-39 16 9 3 31 6 50 6h34v30c0 17 2 30 5 30s5-18 5-39zm197-53-4-33v120l4-27c2-15 2-42 0-60zm-130 10-4-23v90l4-22c2-13 2-33 0-45zm-2180 20-5-13v50l5-12c2-7 2-19 0-25zm1320-115-3-48v190l3-47c2-27 2-69 0-95zm403 67v-60h-49l-4-22-4-23-2 27-1 27 23 3 22 3 3 53c4 71 12 66 12-8zm787-7-4-28v100l4-22c2-13 2-35 0-50zm-1367 27v-30h20v60h90l-1-37-2-38-4 28-4 27h-69v-60h-40v60h-69l-4-27-4-28-2 38-1 37h90v-30zm448-27-2-58-3 48-4 47h-58l-4-47-3-48-2 58-2 57h80l-2-57zm292 45v-13l-50 3-50 4v18h100v-12zm497-40-4-23v40l-1 40 5-17c2-10 2-28 0-40zm-2250-50-4-33v130l4-32c2-18 2-48 0-65zm-480 35-5-18v70l5-17c2-10 2-26 0-35zm180-15-4-23v90l4-22c2-13 2-33 0-45zm116-9-8-8 5 42 5 42 3-34 3-34-8-8zm644-161-3-73v280l3-67c2-37 2-100 0-140zm1300 69-4-42 1 90v90l3-48c2-26 2-67 0-90zm130 36-4-38v140l4-32c2-18 2-50 0-70zm300 45-5-13v50l5-12c2-7 2-19 0-25zm-1207 12c0-5-6-10-14-10s-18 5-21 10l-6 10h41v-10zm120 0v-10h-40v20h40v-10zM57 1828l-4-23v90l4-22c2-13 2-33 0-45zm550-45-4-38v150l4-37c2-21 2-55 0-75zm2000 15-4-33v130l4-32c2-18 2-48 0-65zm330 20-4-23v90l4-22c2-13 2-33 0-45zm-2200-90-4-43v160l4-37c2-21 2-57 0-80zm-200 35-4-28v100l4-22c2-13 2-35 0-50zm431 30 3-33H810v71l78-3 77-3 3-32zm1246 31 16-6v-68h-50v33c0 44 7 52 34 41zm-874-24v-20h-199l-4-47-3-48-2 59-2 59 100-6 100-6v14c0 8 2 15 5 15s5-9 5-20zm250 8v-11l-7 6-6 7-14-11-13-11v32h40v-12zm547-20-5-13-1 19c-1 11 2 17 5 13 3-3 4-12 1-19zm-1882 2 6-10h-70l-4-17-5-18-1 28-1 27h69l6-10zm152-15 3-20-6 13-6 12h-57l-4-27-4-28-2 38-1 38 37-3 38-3 2-20zm1604-17-6-33-3 28-3 27h-49v-190h-140l2 93 2 92 3-81 4-82 22-6c12-3 39-3 60 1l38 6-3 88-3 89h82l-6-32zm436-75-4-38v150l4-37c2-21 2-55 0-75zm369 40 1-68-3 40c-3 22-7 50-9 63l-5 22h-49l-4-47-3-48-2 53-2 52h75l1-67zm131 0-4-28v100l4-22c2-13 2-35 0-50zm-797-43v-90h-140l2 68 2 67 3-56 4-57 52-5c29-2 55-3 60 0l7 4v80c0 43 2 79 5 79s5-40 5-90zM47 1713l-5-18v70l5-17c2-10 2-26 0-35zm2570-45-4-33v130l4-32c2-18 2-48 0-65zm-2326 34 39 4v-28l-31 6c-17 3-38 6-45 6h-14l1 33 2 32 4-28 5-29 39 4zm2041-93 11-7 52 5 52 6 7-12 7-11h-151l2 83 2 82 3-70 4-69 11-7zm-1795 99-5-13-1 19c-1 11 2 17 5 13 3-3 4-12 1-19zm-360-50-4-23v90l4-22c2-13 2-33 0-45zm220-15-4-28v110l4-27c2-16 2-40 0-55zm349-35c79-1 152-2 162-2l17-1 6 40 6 40 2-47 1-48H590l2 53 1 52 4-42 4-43 145-2zm594 27v-45H987l7 8 8 7 161 1 162 1 3 36c4 51 12 46 12-8zm-1234-25h64v-20H30l1 38 2 37 4-27 4-28h65zm2854 10v-40h-140l1 23 1 22 5-12 5-13h118v30c0 17 2 30 5 30s5-18 5-40zm-200 0v-30h-140v15l65-3 65-4v26c0 14 2 26 5 26s5-13 5-30zm-2230-5v-25H379l6 10 6 10h129v15c0 8 2 15 5 15s5-11 5-25zm120-355v-10h-40v20h40v-10zm295 0c-3-5-15-10-26-10h-19v20h51l-6-10zm285 0v-10h-19c-11 0-23 5-26 10l-6 10h51v-10zm645 1 40-9-77-1-78-1v20l38-1c20 0 55-4 77-8zm283-8c-21-2-55-2-75 0l-38 4h150l-37-4zm140 0c-10-2-28-2-40 0l-23 4h40l40 1-17-5zm165 0c-13-2-33-2-45 0l-23 4h90l-22-4zm-1423-67c0-2-7-7-16-10l-15-6 6 10c6 10 25 14 25 6zm-292-83c-21-2-55-2-75 0l-38 4h150l-37-4zm210 0c-10-2-26-2-35 0l-18 5h70l-17-5zm900 0c-21-2-55-2-75 0l-38 4h150l-37-4zm-345-90c-7-2-21-2-30 0l-18 5h60l-12-5zm-858-53 6-10h-81v20h69l6-10zm258-7c-13-2-33-2-45 0l-23 4h90l-22-4zm140 0c-13-2-35-2-50 0l-28 4h100l-22-4zm230 0c-29-2-78-2-110 0l-58 3h220l-52-3zm270 0c-29-2-78-2-110 0l-58 3h220l-52-3zm265 0c-32-2-84-2-115 0l-58 3h230l-57-3zm270 0c-32-2-86-2-120 0l-63 3h240l-57-3zm235 0c-13-2-35-2-50 0l-28 4h100l-22-4z"/></g><g fill="#188fb8" transform="matrix(.1 0 0 -.1 0 300)"><path d="M36 2048c-15-117-36-371-36-425v-62l32-46 32-45h196v29c0 16 3 36 6 45l6 16h83l24-45 24-45h78l-6-52c-4-29-8-58-10-64-2-7 5-45 15-85 10-41 32-136 50-212l32-138 66 3 67 3 3 35c1 19 5 50 8 68l5 32h97l7-57c4-31 9-62 12-70l5-13h1327l7 46c3 25 4 91 2 145l-5 100 9 5 10 6 8-8 9-9 12-142 12-143h135l22 98c12 53 27 120 34 147l12 50 36 3 36 3 16 57 15 57-19 137c-11 76-22 185-26 243l-7 105h41l7-147c3-82 8-160 11-174l5-26 61-7c33-3 120-6 192-6h131l39 56 39 56-16 167c-9 91-20 200-23 242-4 43-9 82-13 87l-6 10-1280 3-1280 3-3-42-3-42h-49v-34c0-19-4-37-8-40l-8-5-38 85-38 84H41l-5-42zm170-43-7-45h51v-90h-20l-7 30c-7 38-11 41-56 33l-37-6v-37h-30v30H72l-7-67c-4-38-8-72-11-78-5-12 4 161 10 190 3 11 5 35 5 53l1 32h142l-6-45zm342-72c-3-65-7-136-7-157-2-78-11-27-12 66l-1 94-30-4-31-5-4-18c-6-23-21-25-29-4l-6 15h-60l4-25 5-25h-29l6 16c3 9 6 29 6 45v29l24-6 23-5 7 50 7 51h134l-7-117zm402 72v-45H753l-6-82c-4-46-7-107-7-135v-53h-15l4 120 3 120h-52v-40h-30v30h-28l-6-67c-3-38-8-107-12-155l-6-88 146-2c80-1 154-2 164-2l17-1v32c0 17 3 35 8 39l7 7v-93H587l7 88c3 48 9 151 12 230l7 142h337v-45zm395 0v-40l-97-3-98-3v-89h-20v60h-50v-40h-15c-7 0-18 8-24 17l-9 18-8-7c-4-4-9-73-12-154l-5-146 11-7 11-7 148 2 148 2 6 38 6 39 2-47 1-48H995l6 192c4 106 7 210 8 231l1 37 168-2 167-3v-40zm395-20c0-34 3-137 7-228l6-167h-153v140h-50v-140h-150v223c0 123 2 226 4 228 3 2 79 4 170 5h166v-61zm394 16c3-24 6-63 6-87v-44h-50l-1-27-2-28-6 35-6 35-30 3-30 3 13-9 14-9-15-6c-22-8-27 1-27 50v43h-60l-2-52-1-53-4 36-4 36-25-5-24-4v-28h-31l-5 15c-4 8-10 15-15 15h-9v-308l23-6c12-3 39-3 61 1l39 6-6 88-6 89h89v-177l53-6c28-2 56-3 60 0l9 5-6 107-5 106 8-30c5-16 9-69 10-117l1-88h-140v58c0 31-3 74-6 95l-7 37h-47v-190h-137l-6 143c-4 78-7 180-7 227v85h164l164 1 6-45zm394 1 3-42h-100l5-47c3-27 8-110 12-185l7-138h-143l-8 183-9 182-47 3-48 3v84h325l3-43zm197 25c2-7 6-47 9-89l6-78h-20v60h-50v-40h-28l-6 22-5 23-12-12-11-11 11-139c6-77 11-145 11-151v-12h121l-6 63c-3 34-8 77-11 95l-5 32h89l7-95 7-95h118v13c0 6-7 71-15 142-8 72-15 136-15 143v12h-40v-32l-35 6-35 7 6-16 6-15h-21l-6 58c-3 31-7 72-10 90l-4 32h70c38 0 69-2 69-5s6-70 14-148 18-179 21-224l7-83h-140l-7 83c-3 45-9 90-11 100l-5 17h-52l6-95 6-95h-138l-6 53c-6 55-25 334-25 377v25l66-3 65-4 4-11zm-1383-207-4-40h-197l-4-47-3-48-2 59-2 59 100-6 100-6v69h16l-4-40zm-374-27 3-33H810v71l78-3 77-3 3-32zm1246 31 16-6v-68h-50v33c0 44 7 52 34 41zm-1961-76-3-48h70v28c0 15 3 37 6 50l7 23 36-3 36-3-3-92-4-93h122v120h22l-6-22c-3-13-6-44-6-70v-48H381l3 13c3 6 7 49 10 95l6 82h-58l-7-51-7-51-30 6c-17 3-37 6-46 6h-15l6 45 7 45h-58l-6-22c-3-13-6-39-6-58s-3-52-6-72l-7-38H30l1 38 2 37 4-27 4-28h117l6 31c3 17 6 57 6 89 0 31 3 60 7 64s23 6 43 4l35-3-2-47zm-206-55-4-28v100l4-22c2-13 2-35 0-50zm697-380c2-10 10-52 16-93s13-85 16-97l4-23h-63c-35 0-66-2-69-5s0-34 8-68c7-34 10-65 8-69-3-4-23-8-44-8h-38l-32 138c-18 75-38 161-45 190l-13 52h247l5-17zm291 5c2-7 6-41 10-75l6-63h-31v-50h14c21 0 23-6 31-97l7-83h-91l-6 58c-4 31-9 65-11 75l-5 17h-39l7-57c3-32 7-65 7-73l1-15-42-3-42-3-6 23c-5 24-55 341-55 352 0 3 54 6 120 6h121l4-12zm298-169c4-100 4-185 1-190l-5-9h-210l-4 13c-4 11-9 60-30 300l-7 67h249l6-181zm281-1-6-183-7-8-8-8-104 3-104 3-3 73-3 72h90l3-37 3-38h40l3 153 3 152h100l-7-182zm296 142v-40h-150v-80h136l-4-35-4-35h-138v-88l65 4 65 4v-13c0-6-3-22-6-34l-6-23h-221l6 137c4 75 7 160 7 190v53h250v-40zm290 16c0-13-3-31-6-40l-6-16h-136l-5-22c-13-53-29-189-24-201l5-14 61 3 61 4v-13c0-6-3-22-6-34l-6-23h-224l8 73c18 168 29 263 34 285l4 22h240v-24zm288-16-10-40h-73l-19-82c-10-46-25-113-33-150l-15-68h-88v13c1 6 14 74 29 150l28 137h-67v18c0 9 3 27 6 40l6 22h246l-10-40zm-1008 635v-35h-15c-7 0-18 8-24 17l-9 18-8-8-8-8-4-148-4-148 23-6c13-4 41-4 61-1l37 6 3 67 3 66h80l3-66 3-66 51-6c28-4 54-5 57-3s4 73 1 157l-5 154-18 3-17 3-6-15c-3-9-12-16-20-16h-14l-2-52-2-53-3 48-4 47h-15c-7 0-14 5-14 10v10h50v60h-70v-60h-40v60h-70v-35zm50-34c0-5-9-11-20-14l-20-5v28h20c11 0 20-4 20-9zm-33-83-5-13v50l5-12c2-7 2-19 0-25zm92-5-1-18-5 13-5 13-14-12-14-11v32h40l-1-17zm498 111c-4-4-7-11-7-16v-8h52l-4 13c-5 14-31 21-41 11zm230 9c-2-5-2-74 2-155l6-147 10-10 10-9 49 5 49 6-8 116c-5 64-8 126-9 139l-1 22-27-6-28-6-10 26-10 26h-14c-8 0-17-3-19-7zM616 1223c3-16 7-34 10-40l3-13h43l-6 23c-3 12-6 30-6 40v17h-50l6-27zm288-3c3-18 6-36 6-41s9-9 21-9h20l-3 38-3 37-24 3-24 4 7-32zm291-82 7-113 8-9 8-8 12 7 12 8-5 101c-4 55-7 107-7 114v12h-43l8-112z"/></g><g fill="#1e5721" transform="matrix(.1 0 0 -.1 0 300)"><path d="M36 2048c-15-117-36-371-36-425v-62l32-46 32-45h196v29c0 16 3 36 6 45l6 16h83l24-45 24-45h78l-6-52c-4-29-8-58-10-64-2-7 5-45 15-85 10-41 32-136 50-212l32-138 66 3 67 3 3 35c1 19 5 50 8 68l5 32h97l7-57c4-31 9-62 12-70l5-13h1327l7 46c3 25 4 91 2 145l-5 100 9 5 10 6 8-8 9-9 12-142 12-143h135l22 98c12 53 27 120 34 147l12 50 36 3 36 3 16 57 15 57-19 137c-11 76-22 185-26 243l-7 105h41l7-147c3-82 8-160 11-174l5-26 61-7c33-3 120-6 192-6h131l39 56 39 56-16 167c-9 91-20 200-23 242-4 43-9 82-13 87l-6 10-1280 3-1280 3-3-42-3-42h-49v-34c0-19-4-37-8-40l-8-5-38 85-38 84H41l-5-42zm174-44v-45l23 3 22 3-3-47-4-48h102v23c0 12 3 32 6 45l6 22h48v90h150v-22c0-13-7-115-15-228s-15-206-15-207c0-2-34-3-76-3h-75l7 96 7 96-24-4-24-3-3-47-3-48h-17c-9 0-33 3-52 6l-35 6 4 44 3 44h-50l-7-77c-3-43-7-85-8-93l-2-15-76-3-76-3 3 28c2 15 10 105 19 198 8 94 18 185 21 203l5 32h139v-46zm746 24c-3-13-6-33-6-45v-23H750v-63c0-35-3-98-6-140l-7-77h203v-90H580l5 58c7 71 25 357 25 383v19h352l-6-22zm394-23v-45h-200v-90h200v-90h-198l-4-42c-3-24-3-46-1-50l4-8h199v-44c0-25-4-47-8-50-4-2-85-2-180 1l-172 6 5 206c4 113 8 216 11 229l4 22h340v-45zm394 8c3-21 6-127 6-236v-198l-72 3-73 3-3 73-3 72h-48l-3-72-3-73-72-3-73-3v471h337l7-37zm396-53v-90h-40v-50h48l4-112c3-62 3-116 1-120l-4-8h-136l-7 38c-3 20-6 63-6 95v57h-52l3-92 4-93-71-3-71-3-7 32c-3 17-6 123-6 235v204h340v-90zm390 45v-45h-92l8-132c5-73 9-158 9-188v-55h-140l-8 105c-4 58-10 142-13 188l-6 82h-98v90h340v-45zm205-50 10-90 23-3 24-4-7 96-7 96h142l4-22c3-13 12-102 21-198 8-96 18-192 21-212l6-38h-150l-6 23c-3 12-6 38-6 57s-3 52-6 73l-7 37h-48l5-52c3-29 7-71 8-93l3-40h-150l-12 160c-6 88-14 193-17 233l-7 73 73-3 73-3 10-90zM968 1793l3-33H810v71l78-3 77-3 3-32zm1246 31 16-6v-68h-50v33c0 44 7 52 34 41zM762 1235c9-55 17-108 17-117l1-18H647l7-37c3-21 9-55 12-76l7-38-49 3-48 3-37 160c-21 88-40 175-44 193l-6 33 128-3 127-3 18-100zm272 97c3-5 8-43 12-85l7-77h-33v-32l19-5 18-5 7-51c3-29 6-69 6-89v-38h-89l-5 18c-2 9-7 43-11 75l-6 57h-32l7-76 7-75-48 3-48 3-31 185c-17 102-29 188-27 193l4 7h238l5-8zm299-99c4-58 7-146 7-195v-88h-230v13c0 6-7 75-15 152s-15 159-15 183v42h247l6-107zm287 4c0-57-3-145-6-195l-7-92h-227v160h100v-90h30v99c0 54 3 126 6 160l7 61h97v-103zm293 96c2-5 2-25 0-45l-5-37-72-3-71-3-3-37-3-38h141v-12c0-7-3-23-6-35l-6-22-67-3-66-3-3-37-3-38h131v-70h-241l5 53c3 28 8 113 12 187 3 74 8 138 11 143l4 7h238l4-7zm291-1c3-5 3-25-1-45l-6-37h-145l-11-82c-7-46-14-98-18-115l-5-33h133l-3-32-3-33-118-3-119-3 6 38c3 21 13 106 22 188 9 83 18 153 21 158l4 7h238l5-8zm296 1c0-5-5-25-11-45l-10-38h-69l-7-27c-3-16-18-82-33-148l-26-120-51-3-50-3 28 138c15 76 28 144 29 151v12h-70l6 28c3 15 8 35 11 45l4 17h249v-7zm-1018 600 3-28 23-3c21-3 32-22 12-22h-10v-90h40v30h50v-30h38l-5 43c-4 23-10 44-14 45-5 2-9 8-9 13v9h50v60h-59l-3-27-3-28-22-3-23-3v61h-71l3-27zm462 11c3-9 6-29 6-45v-29h50v14c0 7-3 28-6 45l-6 31h-50l6-16zM620 1229c0-25 17-59 30-59h10v24c0 35-10 56-26 56h-14v-21zm289-16 6-38h30l-1 13c-1 6-2 23-2 37l-2 25h-37l6-37zm287-65c3-57 7-109 10-115l3-13h34l-7 53c-3 28-6 80-6 115v62h-40l6-102z"/></g><g fill="#07334e" transform="matrix(.1 0 0 -.1 0 300)"><path d="M36 2048c-15-117-36-371-36-425v-62l32-46 32-45h196v29c0 16 3 36 6 45l6 16h83l24-45 24-45h78l-6-52c-4-29-8-58-10-64-2-7 5-45 15-85 10-41 32-136 50-212l32-138 66 3 67 3 3 35c1 19 5 50 8 68l5 32h97l7-57c4-31 9-62 12-70l5-13h1327l7 46c3 25 4 91 2 145l-5 100 9 5 10 6 8-8 9-9 12-142 12-143h135l22 98c12 53 27 120 34 147l12 50 36 3 36 3 16 57 15 57-19 137c-11 76-22 185-26 243l-7 105h41l7-147c3-82 8-160 11-174l5-26 61-7c33-3 120-6 192-6h131l39 56 39 56-16 167c-9 91-20 200-23 242-4 43-9 82-13 87l-6 10-1280 3-1280 3-3-42-3-42h-49v-34c0-19-4-37-8-40l-8-5-38 85-38 84H41l-5-42zm174-44v-45l23 3 22 3-3-47-4-48h102v23c0 12 3 32 6 45l6 22h48v90h150v-22c0-13-7-117-15-231l-15-208 20-39c11-22 20-42 20-45s-33-5-73-5h-73l-23 46-22 47 7 94 7 95-24-4-24-3 3-93 3-93-33 3-33 3-24 44-24 44 2 49 2 48h-51l-1-22c0-13-4-56-8-96l-7-73 12-17c6-9 19-29 29-44l17-28H82l-23 38c-13 20-26 38-30 40s-5 20-3 40 11 111 19 202c9 91 18 180 21 198l5 32h139v-46zm746 24c-3-13-6-33-6-45v-23H750v-63c0-35-3-98-6-140l-7-77h200l6-67c3-38 9-78 13-91l6-22-172 2-172 3-18 45-18 45 14 200c7 110 13 212 14 228v27h352l-6-22zm394-23v-45h-200v-90h200v-90h-198l-4-42c-3-24-3-46-1-50l4-8h199v-180h-339l-8 23-8 22 3 235c2 129 5 243 8 253l5 17h339v-45zm394 8c8-50 8-441 0-482l-6-31h-143l3 115 4 115h-52v-230h-150v550h337l7-37zm396-53v-90h-40v-50h48l4-112 4-113-13-47-14-48h-147l13 43 13 43-6 92-5 92h-49l3-92c1-51-1-112-5-135l-8-43h-150l7 18 7 17-1 258-2 257h341v-90zm390 45v-45h-90v-27c0-16 5-98 11-184l11-156-20-47-21-46h-70c-39 0-71 2-71 5s7 22 16 43l16 37-6 115c-4 63-9 148-12 188l-6 72h-98v90h340v-45zm205-50 10-90 23-3 24-4-7 96-7 96h142l4-22c3-13 14-117 25-233l20-210-33-45-32-45-59-3c-32-2-64-1-72 2l-14 6 29 43 30 42-9 80c-4 44-8 86-8 93l-1 12h-51l6-67c4-38 8-77 10-88l4-21-30-52-29-52h-140l1 13c0 6 10 27 22 45l22 34-11 161c-7 89-15 195-19 235l-6 73 73-3 73-3 10-90zM968 1793l3-33H810v71l78-3 77-3 3-32zm1246 31 16-6v-68h-50v33c0 44 7 52 34 41zM762 1235c9-55 17-108 17-117l1-18H647l7-37c3-21 9-55 12-76l7-38-49 3-48 3-37 160c-21 88-40 175-44 193l-6 33 128-3 127-3 18-100zm272 97c3-5 8-43 12-85l7-77h-33v-32l19-5 18-5 7-51c3-29 6-69 6-89v-38h-89l-5 18c-2 9-7 43-11 75l-6 57h-32l7-76 7-75-48 3-48 3-31 185c-17 102-29 188-27 193l4 7h238l5-8zm299-99c4-58 7-146 7-195v-88h-230v13c0 6-7 75-15 152s-15 159-15 183v42h247l6-107zm287 4c0-57-3-145-6-195l-7-92h-227v160h100v-90h30v99c0 54 3 126 6 160l7 61h97v-103zm293 96c2-5 2-25 0-45l-5-37-72-3-71-3-3-37-3-38h141v-12c0-7-3-23-6-35l-6-22-67-3-66-3-3-37-3-38h131v-70h-241l5 53c3 28 8 113 12 187 3 74 8 138 11 143l4 7h238l4-7zm291-1c3-5 3-25-1-45l-6-37h-145l-11-82c-7-46-14-98-18-115l-5-33h133l-3-32-3-33-118-3-119-3 6 38c3 21 13 106 22 188 9 83 18 153 21 158l4 7h238l5-8zm296 1c0-5-5-25-11-45l-10-38h-69l-7-27c-3-16-18-82-33-148l-26-120-51-3-50-3 28 138c15 76 28 144 29 151v12h-70l6 28c3 15 8 35 11 45l4 17h249v-7zm-1018 600 3-28 23-3c21-3 32-22 12-22h-10v-90h40v30h50v-30h38l-5 43c-4 23-10 44-14 45-5 2-9 8-9 13v9h50v60h-60v-60h-50v60h-71l3-27zm462 11c3-9 6-29 6-45v-29h50v14c0 7-3 28-6 45l-6 31h-50l6-16zM620 1229c0-25 17-59 30-59h10v24c0 35-10 56-26 56h-14v-21zm289-16 6-38h30l-1 13c-1 6-2 23-2 37l-2 25h-37l6-37zm287-65c3-57 7-109 10-115l3-13h34l-7 53c-3 28-6 80-6 115v62h-40l6-102z"/></g><g fill="#010506" transform="matrix(.1 0 0 -.1 0 300)"><path d="M36 2048c-15-117-36-371-36-425v-62l32-46 32-45h196v29c0 16 3 36 6 45l6 16h83l24-45 24-45h78l-6-52c-4-29-8-58-10-64-2-7 5-45 15-85 10-41 32-136 50-212l32-138 66 3 67 3 3 35c1 19 5 50 8 68l5 32h97l7-57c4-31 9-62 12-70l5-13h1327l7 46c3 25 4 91 2 145l-5 100 9 5 10 6 8-8 9-9 12-142 12-143h135l22 98c12 53 27 120 34 147l12 50 36 3 36 3 16 57 15 57-19 137c-11 76-22 185-26 243l-7 105h41l7-147c3-82 8-160 11-174l5-26 61-7c33-3 120-6 192-6h131l39 56 39 56-16 167c-9 91-20 200-23 242-4 43-9 82-13 87l-6 10-1280 3-1280 3-3-42-3-42h-49v-34c0-19-4-37-8-40l-8-5-38 85-38 84H41l-5-42zm177-35-2-43h51l-4-45-3-45h94l3 43 3 42 22 3 22 3 7 45 6 45 77-3 76-3-2-20c-1-11-7-114-13-230-6-115-13-211-15-214-2-2 5-21 15-42 11-21 20-41 20-44s-33-5-73-5h-74l-23 50-23 49 6 86 6 85h-36l-7-30c-3-17-3-58 1-91l6-60-33 3-34 3-29 49-28 49 3 41 3 41-17 3-16 3-6-28c-3-15-8-60-11-100l-7-72 19-28c11-15 23-34 27-40l7-13H82l-23 38c-13 20-27 40-32 43l-10 7 17 163c9 90 19 193 22 229s8 69 11 73l5 8 71-3 72-3-2-42zm747-3v-50H763l-7-37c-3-21-6-82-6-135v-97l98-3 97-3 1-60c0-33 4-75 8-92l8-33H621l-21 48-21 47 10 160c6 88 11 190 11 226s3 69 7 72c3 4 84 7 180 7h173v-50zm388-2 3-48h-201v-77l53-7c28-3 74-6 100-6h48l-3-47-3-48-97-3-98-3v-79h200v-190h-340l-7 28-8 27 2 240c2 132 5 246 8 253l5 12 167-2 168-3 3-47zm404-180 3-223-9-52-9-53h-142l3 115 4 115h-52v-230h-148l-7 90-7 90 7 185 7 185h347l3-222zm393 159c4-34 5-76 3-92l-3-30-23-3-23-4 3-16 3-17h40l9-110 8-110-16-52-17-53h-149l10 26 10 25v219h-48l5-75 6-74-13-61-13-60h-142l-1 275v275h344l7-63zm390 13v-45l-48-3-48-3 5-17c2-9 7-90 11-178l7-162-21-46-20-46h-70c-39 0-71 2-71 4 0 3 5 17 11 33l12 28-2 70c0 39-4 125-7 192l-6 122-47 3-46 3-3 48-3 47 173-2 173-3v-45zm199 34c3-9 6-35 6-59 0-23 3-57 6-74l7-31h39l-6 38c-3 20-7 60-8 87l-3 50 78 3 77 3v-13c0-7 7-83 15-168s18-184 21-220l5-65-36-47-35-48h-63c-35 0-66 3-70 6-3 3 5 23 19 44l25 38-7 96-7 96h-43l9-89 8-89-31-51-32-51h-138v9c0 6 9 25 20 44l20 34-10 139c-5 76-12 183-16 237l-7 97h151l6-16zM968 1793l3-33H810v71l78-3 77-3 3-32zm1246 31 16-6v-68h-50v33c0 44 7 52 34 41zm23-316-4-23v90l4-22c2-13 2-33 0-45zm-37-73 12-114-6-35-7-35-71-3-72-3-13-85c-7-47-12-95-13-107v-23h59c33 0 62-3 64-7 3-5 2-23 0-40l-5-33h-244l23 183c12 100 22 214 23 254v72l102 3 101 3 15 43c7 23 15 42 17 42 1 0 8-52 15-115zm295-142-6-43h-34c-19 0-36-4-39-8-3-5-19-72-37-150l-32-142h-54c-29 0-53 2-53 5 0 9 51 257 56 278l5 17h-73l7 38c4 20 7 73 7 117-1 44 1 74 4 68l6-13h186l18 28 18 27 14-90 13-90-6-42zM750 1393l-1-78 20-105c11-57 17-108 15-112l-5-8H649l5-17c2-10 7-34 11-53s9-43 11-52l5-18h-55c-31 0-56 2-56 4s-18 84-41 183l-40 178 6 70c4 39 9 73 12 78l4 7h239v-77zm221 71 66-7 7-129c4-72 10-136 13-144l5-14h-41l5-15c4-8 12-15 19-15h13l6-37c3-21 8-64 11-95l6-58H971l-6 58c-8 71-11 82-26 82h-11l7-42c3-24 8-55 11-70l6-28H841l-6 33c-28 166-53 347-50 367 2 14 7 46 10 73l6 47h52c29 0 82-3 118-6zm363-126c3-68 8-183 12-255l6-133h-243l-3 13c-2 6-10 91-18 187l-15 175 4 68 5 67h246l6-122zm289 42c5-83 0-341-9-397l-5-33h-239v160h110v-80h30v123c0 68 3 165 6 215l7 92h94l6-80zm288 48c0-18 3-55 5-83 3-27 2-60-1-72l-5-23h-138l-4-35-4-35h137l-3-42-3-43-65-3-64-3-8-12c-4-7-8-20-8-29v-18h129l6-10 6-10-6-30-7-30h-240l6 108c3 59 8 173 12 255l6 147h248l1-32zm-421 507v-25h19c11 0 23-5 27-11l7-12-17-9-16-9v-79h28l5 20 5 20h52v-40h30v83l-17 13c-10 7-30 14-45 14h-28v60h-50v-25zm110-9v-23l25 5 25 4v38h-50v-24zm350-16v-40h40v80h-40v-40zM624 1228c3-13 6-29 6-35v-13h32l-6 16c-3 9-6 24-6 35v19h-32l6-22zm286 3c0-26 10-51 21-51h9v70h-30v-19zm290-53c0-86 9-148 21-148h9v73c0 85-9 147-21 147h-9v-72z"/></g></g></svg>