<?xml version="1.0" standalone="no"?>
<!DOCTYPE svg PUBLIC "-//W3C//DTD SVG 20010904//EN"
 "http://www.w3.org/TR/2001/REC-SVG-20010904/DTD/svg10.dtd">
<svg version="1.0" xmlns="http://www.w3.org/2000/svg"
 width="480.000000pt" height="480.000000pt" viewBox="0 0 480.000000 480.000000"
 preserveAspectRatio="xMidYMid meet">
<metadata>
Created by potrace 1.16, written by Peter Selinger 2001-2019
</metadata>
<g transform="translate(0.000000,480.000000) scale(0.100000,-0.100000)"
fill="#000000" stroke="none">
<path d="M0 2400 l0 -2400 2400 0 2400 0 0 2400 0 2400 -2400 0 -2400 0 0
-2400z m335 810 l-7 -70 41 0 41 0 -7 -75 -6 -75 81 0 81 0 5 33 c3 17 7 50 8
72 3 39 4 40 43 45 l40 5 3 68 3 67 117 0 117 0 -22 -337 c-12 -186 -22 -353
-22 -370 l-1 -33 -121 0 -121 0 6 53 c3 28 8 98 12 155 l7 102 -41 0 c-48 0
-52 -8 -52 -96 0 -72 7 -69 -100 -57 l-62 6 6 74 7 73 -46 0 c-42 0 -45 -2
-45 -27 0 -16 -5 -85 -11 -155 l-12 -128 -119 0 c-65 0 -118 2 -118 5 0 4 16
168 35 366 19 199 35 363 35 365 0 2 52 4 116 4 l116 0 -7 -70z m1191 24 c-3
-26 -6 -57 -6 -70 l0 -24 -159 0 -158 0 -7 -172 c-9 -244 -14 -278 -37 -278
-11 0 -19 -7 -19 -15 0 -10 -10 -15 -30 -15 -24 0 -30 4 -30 23 0 34 -11 43
-57 51 -36 5 -43 4 -43 -10 0 -9 7 -22 16 -28 19 -14 9 -66 -12 -66 -8 0 -14
-10 -14 -25 0 -20 6 -25 34 -30 55 -11 76 1 76 41 0 33 2 35 28 32 23 -3 27
-8 27 -33 0 -40 12 -46 84 -39 l61 7 0 53 0 54 36 0 37 0 -7 -54 -6 -54 66 -7
c36 -4 68 -5 70 -2 2 2 1 18 -2 35 -6 27 -11 32 -35 32 -24 0 -29 4 -29 25 0
23 3 25 51 25 43 0 50 -3 45 -16 -3 -9 -6 -42 -6 -75 l0 -59 -280 0 -280 0 0
48 c0 26 9 189 20 362 11 173 20 318 20 323 0 4 124 7 276 7 l277 0 -7 -46z
m632 -26 l3 -68 -161 0 -160 0 0 -75 0 -75 83 -2 c45 -1 116 -2 157 -3 54 0
75 -4 74 -12 -1 -7 -2 -38 -2 -68 l-2 -54 -157 -3 -158 -3 -3 -77 c-3 -70 -5
-78 -22 -78 -11 0 -20 -7 -20 -15 0 -10 -10 -15 -30 -15 -25 0 -30 4 -36 35
-6 34 -7 35 -55 35 -37 0 -49 -4 -49 -15 0 -8 6 -15 14 -15 8 0 17 -4 21 -10
9 -15 -6 -60 -21 -60 -9 0 -14 -11 -14 -30 0 -30 1 -30 55 -30 l55 0 0 41 c0
38 1 40 28 37 24 -3 27 -7 26 -40 l-1 -38 73 0 74 0 -2 58 -3 57 38 3 38 3 -7
-60 -7 -61 73 0 c70 0 72 1 66 23 -3 12 -6 28 -6 35 0 7 -13 12 -30 12 -25 0
-30 4 -30 25 0 23 4 25 45 25 l45 0 0 -75 0 -75 -282 0 -281 0 7 213 c3 116 9
283 13 370 l6 157 271 -2 271 -3 3 -67z m625 65 c3 -5 8 -171 12 -370 l7 -363
-121 0 -121 0 0 115 0 115 -40 0 -40 0 0 -115 0 -115 -120 0 -120 0 0 363 c0
200 3 367 7 370 9 10 531 9 536 0z m631 -5 c3 -7 7 -73 10 -145 l5 -133 -39 0
c-40 0 -40 0 -40 -40 0 -40 0 -40 39 -40 l39 0 6 -72 c3 -40 8 -124 10 -185
l6 -113 -120 0 -120 0 0 89 c0 48 -3 116 -6 150 l-7 61 -40 0 -40 0 5 -150 5
-150 -117 0 -117 0 -6 233 c-4 127 -7 294 -7 370 l0 137 265 0 c204 0 267 -3
269 -12z m634 -60 l3 -68 -76 0 -75 0 1 -42 c0 -24 8 -159 17 -300 l17 -258
-116 0 -117 0 -6 88 c-3 48 -11 179 -17 292 -6 113 -13 208 -16 213 -2 4 -38
7 -79 7 l-74 0 0 70 0 70 268 -2 267 -3 3 -67z m313 50 c4 -6 9 -62 13 -126 9
-154 9 -152 58 -152 l41 0 -6 63 c-4 34 -10 99 -13 145 l-7 82 115 0 115 0 22
-237 c13 -131 28 -295 35 -366 7 -70 10 -130 7 -132 -2 -3 -55 -5 -117 -5
l-112 0 -6 53 c-3 28 -8 88 -11 132 -9 126 -9 125 -57 125 l-41 0 6 -62 c4
-35 9 -103 13 -151 l7 -88 -119 3 -119 3 -26 360 c-14 198 -24 363 -22 367 5
10 217 -3 224 -14z m-3171 -1125 c0 -5 14 -87 30 -183 16 -96 30 -178 30 -182
0 -5 -47 -8 -103 -8 -57 0 -106 -2 -109 -5 -3 -3 5 -55 17 -115 l22 -110 -78
0 c-44 0 -79 2 -79 4 0 2 -29 133 -65 290 -36 157 -65 292 -65 301 0 13 28 15
200 15 110 0 200 -3 200 -7z m474 -60 c3 -32 9 -88 12 -125 l7 -68 -27 0 c-25
0 -27 -3 -24 -32 2 -27 8 -34 29 -36 29 -3 32 -11 44 -157 4 -38 9 -82 11 -97
l6 -28 -80 0 -79 0 -14 113 c-14 111 -14 112 -41 115 -33 4 -34 1 -14 -135
l13 -93 -79 0 c-43 0 -78 4 -78 8 0 5 -20 135 -45 290 -25 155 -45 286 -45
292 0 6 67 10 199 10 l198 0 7 -57z m470 -170 c3 -126 8 -261 11 -300 l5 -73
-185 0 c-183 0 -185 0 -189 23 -3 12 -14 137 -26 277 -11 140 -23 265 -26 278
l-4 22 204 0 204 0 6 -227z m462 180 c-3 -27 -8 -142 -11 -258 -3 -115 -8
-230 -11 -255 l-5 -45 -177 4 c-119 2 -179 7 -184 15 -4 6 -8 59 -8 119 l0
107 80 0 79 0 3 -67 c3 -65 4 -68 28 -68 l25 0 6 220 c4 121 7 232 8 248 l1
27 86 0 86 0 -6 -47z m464 5 c0 -90 2 -88 -125 -88 l-113 0 -5 -57 c-2 -32 -3
-61 0 -65 2 -5 54 -8 115 -8 96 0 109 -2 104 -16 -3 -9 -6 -33 -6 -54 l0 -39
-112 -3 -113 -3 -3 -62 -3 -63 106 0 c117 0 111 4 99 -72 l-7 -38 -178 0 c-98
0 -180 4 -183 8 -2 4 2 131 9 282 8 151 15 285 15 298 l0 22 200 0 200 0 0
-42z m466 -5 c-13 -89 -4 -83 -132 -83 -63 0 -114 -2 -114 -4 0 -2 -11 -81
-25 -176 -14 -95 -25 -176 -25 -181 0 -5 47 -9 105 -9 116 0 111 4 99 -72 l-7
-38 -183 0 c-147 0 -184 3 -184 13 0 19 59 525 65 565 l6 32 201 0 200 0 -6
-47z m470 30 c-3 -10 -10 -39 -17 -65 l-11 -48 -57 0 -57 0 -55 -237 -54 -238
-78 -3 c-76 -3 -78 -3 -72 20 3 13 25 121 49 241 l43 217 -55 0 -55 0 7 50
c11 86 -5 80 218 80 185 0 199 -1 194 -17z"/>
<path d="M86 2725 c-9 -24 -8 -25 15 -25 17 0 20 -4 15 -22 -3 -13 -6 -28 -6
-34 0 -7 -9 -14 -20 -17 -12 -3 -20 -14 -20 -25 0 -17 9 -22 46 -28 52 -7 61
-2 66 41 2 24 8 31 31 33 25 3 27 1 27 -32 0 -60 15 -40 16 22 1 31 0 49 -3
40 -3 -12 -14 -18 -33 -18 -25 0 -30 5 -36 35 -5 27 -11 35 -28 35 -11 0 -31
3 -42 6 -14 4 -23 0 -28 -11z"/>
<path d="M659 2728 c0 -2 -2 -28 -5 -58 -2 -30 -5 -64 -7 -75 -2 -21 21 -30
56 -21 17 4 22 13 22 38 0 30 3 33 34 36 33 3 33 3 29 -32 -3 -24 1 -37 10
-41 23 -9 29 2 31 60 1 49 -1 55 -19 55 -11 0 -20 -7 -20 -15 0 -10 -10 -15
-30 -15 -25 0 -30 4 -36 35 -5 30 -10 35 -35 35 -16 0 -29 -1 -30 -2z"/>
<path d="M2370 3090 l0 -50 40 0 c29 0 40 -4 40 -15 0 -8 -9 -15 -20 -15 -19
0 -21 -5 -18 -77 l3 -78 30 0 c26 0 30 4 33 30 3 29 5 31 36 27 28 -3 35 -9
40 -33 5 -24 10 -29 36 -29 l30 0 0 80 c0 73 -2 80 -20 80 -11 0 -20 7 -20 15
0 11 11 15 41 15 l40 0 -3 48 -3 47 -50 0 -50 0 -3 -42 c-3 -42 -4 -43 -38
-43 -34 0 -34 0 -34 45 l0 45 -55 0 -55 0 0 -50z"/>
<path d="M2270 2715 c0 -8 7 -15 15 -15 10 0 15 -11 15 -35 0 -24 -5 -35 -15
-35 -10 0 -15 -10 -15 -30 0 -30 0 -30 56 -30 51 0 55 2 49 20 -10 32 4 60 30
60 26 0 40 -28 30 -60 -4 -11 -2 -20 4 -20 7 0 11 24 10 63 -1 34 -3 54 -6 45
-7 -27 -73 -25 -73 1 0 41 -11 51 -56 51 -32 0 -44 -4 -44 -15z"/>
<path d="M2647 2724 c-4 -4 -7 -40 -7 -81 l0 -73 65 0 65 0 0 30 c0 26 -3 30
-29 30 -23 0 -30 6 -35 25 -9 35 -1 45 35 45 20 0 29 4 27 13 -5 13 -109 23
-121 11z"/>
<path d="M2920 2710 c0 -11 7 -20 15 -20 10 0 15 -10 15 -30 0 -20 -5 -30 -15
-30 -10 0 -15 -10 -15 -30 0 -30 0 -30 56 -30 54 0 56 1 50 24 -9 35 3 56 30
56 21 0 24 -4 24 -40 0 -23 5 -40 11 -40 8 0 9 11 5 31 -3 17 -6 43 -7 58 0
14 -3 20 -6 14 -2 -7 -18 -13 -34 -13 -22 0 -29 5 -29 19 0 41 -11 51 -56 51
-37 0 -44 -3 -44 -20z"/>
<path d="M3290 2650 l0 -80 65 0 c49 0 65 3 65 14 0 32 -13 46 -41 46 -26 0
-29 4 -29 30 0 27 3 30 30 30 23 0 30 4 30 20 0 18 -7 20 -60 20 l-60 0 0 -80z"/>
<path d="M3800 2710 c0 -16 -7 -20 -35 -20 l-35 0 0 -60 0 -60 71 0 71 0 -7
63 c-9 88 -13 97 -41 97 -17 0 -24 -5 -24 -20z"/>
<path d="M4200 2714 c0 -9 9 -18 20 -21 25 -7 29 -63 5 -63 -10 0 -15 -10 -15
-29 0 -27 3 -30 44 -36 56 -9 66 -2 66 41 0 33 2 35 28 32 24 -3 27 -7 26 -35
-1 -18 2 -33 7 -33 5 0 9 15 8 33 -1 37 -16 92 -18 65 -1 -13 -9 -18 -30 -18
-25 0 -30 5 -35 34 -7 35 -24 46 -78 46 -19 0 -28 -5 -28 -16z"/>
<path d="M4580 2653 l0 -80 61 -7 c34 -4 65 -4 70 1 4 4 5 20 2 36 -4 22 -11
27 -33 27 -27 0 -40 15 -40 46 0 9 11 14 30 14 20 0 30 5 30 15 0 9 -9 15 -22
15 -13 0 -40 3 -60 6 l-38 7 0 -80z"/>
<path d="M1907 2003 c-3 -6 17 -355 22 -371 1 -2 13 -2 28 0 26 3 26 3 23 83
-1 44 -5 127 -9 185 -6 104 -6 105 -33 108 -14 2 -28 0 -31 -5z"/>
</g>
</svg>
